<svg width="27" height="24" viewBox="0 0 27 24" fill="none" xmlns="http://www.w3.org/2000/svg">
<path d="M13.4999 15C15.3827 15 16.909 13.6569 16.909 12C16.909 10.3431 15.3827 9 13.4999 9C11.6171 9 10.0908 10.3431 10.0908 12C10.0908 13.6569 11.6171 15 13.4999 15Z" stroke="#093246" stroke-width="2" stroke-linecap="round" stroke-linejoin="round"/>
<path d="M20.25 17.94C18.3075 19.243 15.9422 19.9649 13.5 20C5.54545 20 1 12 1 12C2.41351 9.6819 4.37402 7.65661 6.75 6.06M11.1136 4.24C11.8958 4.07888 12.6967 3.99834 13.5 4C21.4545 4 26 12 26 12C25.3102 13.1356 24.4876 14.2047 23.5455 15.19M15.9091 14.12C15.597 14.4147 15.2206 14.6512 14.8024 14.8151C14.3843 14.9791 13.9328 15.0673 13.4751 15.0744C13.0174 15.0815 12.5627 15.0074 12.1382 14.8565C11.7137 14.7056 11.3281 14.481 11.0044 14.1962C10.6806 13.9113 10.4254 13.5719 10.254 13.1984C10.0825 12.8248 9.99833 12.4247 10.0064 12.0219C10.0145 11.6191 10.1147 11.2218 10.301 10.8538C10.4873 10.4859 10.756 10.1546 11.0909 9.88M1 1L26 23" stroke="#093246" stroke-width="2" stroke-linecap="round" stroke-linejoin="round"/>
</svg>
